<svg xmlns="http://www.w3.org/2000/svg" id="Layer_1" data-name="Layer 1" viewBox="0 0 42.62 19.22" x="0px" y="0px">
    <defs>
        <style>
            .cls-1{fill:#588757;}
        </style>
    </defs>
    <title>
        Customer-inspired badge mini
    </title>
    <path d="M26.63,15.35m0,0,8.22,0L38.22,9.5,34.85,3.62H30v0h-5.1l-.39-1.26-1.38.25L22.41,1.4,21.15,2l-1-.93L19.05,2,17.79,1.4,17,2.58l-1.38-.25-.38,1.21H10.71v0H4.4L6.79,9.44,4.4,15.32h9.71v0h.42l.16,1,1.4-.06.6,1.27L18,17.07l.91,1.06,1.17-.77,1.16.77.92-1.06,1.33.43.59-1.27,1.4.06.16-.94Zm.18-3.8.23.56-.53.3L26,12.7l.07.59.06.6-.59.14-.58.14-.1.59-.1.6-.6,0-.6,0-.25.54L23,16.4l-.58-.19L21.89,16l-.4.45-.39.46-.5-.33-.5-.33-.5.33-.51.33-.39-.46L18.31,16l-.57.18-.58.19-.25-.55-.26-.54-.59,0-.61,0-.1-.6-.1-.59L14.67,14l-.59-.14.07-.6.06-.59-.52-.29-.53-.3.23-.56.22-.55-.43-.42-.43-.43.37-.48.37-.47-.3-.52-.3-.53.48-.36.48-.36-.14-.58-.15-.59L14.12,6l.56-.21,0-.6,0-.61.6-.06.6,0,.17-.58.18-.57.6.1.59.11.32-.5.33-.51.55.26.54.26.44-.39.46-.41.45.41.45.39.54-.26.54-.26.33.51.33.5.59-.11.59-.1.18.57.18.58.6,0,.6.06,0,.61v.6l.56.21.57.22-.15.59-.15.58.48.36.49.36-.3.53-.3.52.36.47.37.48-.43.43-.42.42Z" class="cls-1"/>
    <path d="M21.9,9.64a2.06,2.06,0,0,1-1.72,1.07,2,2,0,0,1-1.71-1.07c-1.2.35-2,1-2,1.82,0,1.12,1.72,2.07,3.75,2.07s3.75-.95,3.75-2.07C23.93,10.68,23.09,10,21.9,9.64Z" class="cls-1"/>
    <path d="M20.18,10.4A2.21,2.21,0,0,0,22.06,8a2.21,2.21,0,0,0-1.88-2.43A2.21,2.21,0,0,0,18.31,8,2.21,2.21,0,0,0,20.18,10.4Z" class="cls-1"/>
</svg>
