<svg xmlns="http://www.w3.org/2000/svg" id="Layer_1" data-name="Layer 1" viewBox="0 0 202.13 46.24" x="0px" y="0px">
    <defs>
        <style>
            .cls-1{fill:#fff;}
        </style>
    </defs>
    <title>
        Customer-inspired badge full - WHITE
    </title>
    <path d="M43.11,23.18a3.85,3.85,0,0,1-6.94,0c-2.43.71-4.13,2.12-4.13,3.7,0,2.26,3.48,4.18,7.6,4.18s7.59-1.92,7.59-4.18C47.23,25.3,45.54,23.89,43.11,23.18Z" class="cls-1"/>
    <path d="M39.64,24.73c2.09,0,3.8-2.22,3.8-4.94s-1.71-4.94-3.8-4.94-3.8,2.22-3.8,4.94S37.54,24.73,39.64,24.73Z" class="cls-1"/>
    <path d="M165.2,21.7a1.35,1.35,0,0,0-1.5,1.42h2.71a1.68,1.68,0,0,0-.35-1A1.07,1.07,0,0,0,165.2,21.7Z" class="cls-1"/>
    <path d="M148.53,21.71a1.6,1.6,0,0,0-.76.2,2,2,0,0,0-.59.54v2.94a1.65,1.65,0,0,0,1.34.62,1.11,1.11,0,0,0,1-.55,2.93,2.93,0,0,0,.35-1.59,3.07,3.07,0,0,0-.34-1.6A1.11,1.11,0,0,0,148.53,21.71Z" class="cls-1"/>
    <path d="M112,21.7a1.35,1.35,0,0,0-1.49,1.42h2.7a1.62,1.62,0,0,0-.35-1A1.06,1.06,0,0,0,112,21.7Z" class="cls-1"/>
    <path d="M92.08,21.76c-1,0-1.43.7-1.43,2.1s.47,2.1,1.43,2.1,1.43-.7,1.43-2.1S93,21.76,92.08,21.76Z" class="cls-1"/>
    <path d="M171.61,22.26a3,3,0,0,0-.35,1.6,3,3,0,0,0,.35,1.6,1.1,1.1,0,0,0,1,.55,1.47,1.47,0,0,0,.76-.2,1.69,1.69,0,0,0,.59-.54V22.34a1.66,1.66,0,0,0-1.34-.63A1.13,1.13,0,0,0,171.61,22.26Z" class="cls-1"/>
    <path d="M187.65,11H174.88v-.05H49.27l-.79-2.55-2.79.5L44.15,6.49,41.59,7.73,39.47,5.85,37.34,7.73,34.79,6.49,33.25,8.88l-2.8-.5-.76,2.44H20.44v0H7.67L12.5,22.78,7.67,34.69H27.35v0h.84l.33,2,2.83-.12,1.21,2.57,2.69-.87,1.86,2.15,2.36-1.57,2.36,1.57,1.85-2.15,2.7.87,1.2-2.57,2.84.12.31-1.9H168v0h19.68l6.81-11.91ZM53.07,27.06l.45,1.14-1.07.59-1.06.59.13,1.2.14,1.22-1.2.29-1.18.27-.2,1.2-.2,1.21-1.22-.05-1.22,0-.51,1.1-.52,1.11-1.17-.38-1.15-.37-.79.92-.8.93-1-.68-1-.67-1,.67-1,.68-.8-.93-.79-.92-1.16.37-1.17.38L33,35.77l-.51-1.1-1.21,0-1.23.05-.2-1.21-.2-1.2-1.18-.27-1.19-.29.13-1.22.14-1.2-1.07-.59-1.07-.59.46-1.14.45-1.13-.86-.85-.88-.86.75-1,.74-1-.6-1.05-.61-1.07,1-.73,1-.73-.3-1.17-.3-1.19,1.15-.45,1.13-.43,0-1.22,0-1.22,1.23-.12,1.2-.11.36-1.16.37-1.18,1.2.22,1.2.22.66-1,.66-1,1.11.54,1.09.53.91-.81.92-.81.92.81.91.81,1.09-.53,1.1-.53.67,1,.66,1L46,10.67l1.21-.22.36,1.18.36,1.16,1.21.11,1.22.12,0,1.22,0,1.22,1.13.43,1.14.45-.3,1.19-.29,1.17,1,.73,1,.73-.61,1.07-.6,1.05.74,1,.75,1-.87.86-.87.85Zm15.27-.14a6.26,6.26,0,0,1-1.18.4,6.13,6.13,0,0,1-1.47.16,4.42,4.42,0,0,1-3.45-1.29,5.35,5.35,0,0,1-1.17-3.72,5.39,5.39,0,0,1,.57-2.57,3.93,3.93,0,0,1,1.63-1.65,5.09,5.09,0,0,1,2.51-.58,5.61,5.61,0,0,1,1.27.14,5.16,5.16,0,0,1,1,.37v1.71a8.81,8.81,0,0,0-1.19-.36,4.73,4.73,0,0,0-1-.11,2.61,2.61,0,0,0-2.05.8,3.24,3.24,0,0,0-.72,2.25,3.77,3.77,0,0,0,.7,2.42,2.53,2.53,0,0,0,2.07.85A5.31,5.31,0,0,0,67,25.62a10.06,10.06,0,0,0,1.31-.39Zm7.53.38H74.58l-.27-1.05a3,3,0,0,1-2.41,1.21,2.13,2.13,0,0,1-1.75-.73,3.15,3.15,0,0,1-.62-2.08V20.42h2v4.17q0,1.26,1,1.26a1.37,1.37,0,0,0,.81-.28,1.86,1.86,0,0,0,.58-.76V20.42h2Zm6-.41a3.72,3.72,0,0,1-2.24.57,6.56,6.56,0,0,1-1.32-.13,3.61,3.61,0,0,1-1-.33V25.44a7.17,7.17,0,0,0,1.2.36,6.12,6.12,0,0,0,1.14.11q1.11,0,1.11-.57a.44.44,0,0,0-.21-.37,2.72,2.72,0,0,0-.71-.28l-1-.27a3,3,0,0,1-1.31-.73,1.69,1.69,0,0,1-.45-1.22,1.91,1.91,0,0,1,.78-1.62A3.52,3.52,0,0,1,80,20.27a6.8,6.8,0,0,1,1.18.1,4.89,4.89,0,0,1,1,.29v1.53a6.08,6.08,0,0,0-2.17-.4c-.7,0-1,.18-1,.53a.42.42,0,0,0,.21.33,2.43,2.43,0,0,0,.68.28l1,.28a3,3,0,0,1,1.38.72,1.91,1.91,0,0,1,.4,1.29A1.94,1.94,0,0,1,81.91,26.89Zm6,.43-.57.06h-.56A2.47,2.47,0,0,1,85,26.8a2.54,2.54,0,0,1-.61-1.86v-3h-1.2v-1l1.3-.53L85,18.45h1.3v2H87.8v1.49H86.33v2.92a.89.89,0,0,0,.25.72,1.09,1.09,0,0,0,.74.22h.28l.28,0Zm6.72-.81a3.82,3.82,0,0,1-5,0,3.7,3.7,0,0,1-.9-2.65,3.68,3.68,0,0,1,.9-2.65,3.85,3.85,0,0,1,5,0,3.68,3.68,0,0,1,.9,2.65A3.7,3.7,0,0,1,94.6,26.51Zm12.63.79h-2V23.14c0-.84-.33-1.26-1-1.26a1.14,1.14,0,0,0-.76.27,1.7,1.7,0,0,0-.5.77V27.3h-2V23.14q0-1.26-1-1.26a1.19,1.19,0,0,0-.77.27,1.7,1.7,0,0,0-.5.77V27.3h-2V20.42h1.29l.27,1a2.69,2.69,0,0,1,2.26-1.17,2,2,0,0,1,2,1.1,3,3,0,0,1,1-.81,2.89,2.89,0,0,1,1.27-.29,2.13,2.13,0,0,1,1.73.72,3.25,3.25,0,0,1,.59,2.09Zm7.69-2.9H110.5a1.72,1.72,0,0,0,.58,1.17,2,2,0,0,0,1.33.37,5.82,5.82,0,0,0,1-.1,6.56,6.56,0,0,0,1.14-.35V27a5.48,5.48,0,0,1-2.39.48,3.74,3.74,0,0,1-2.72-.93,3.62,3.62,0,0,1-1-2.69,3.62,3.62,0,0,1,.92-2.62,3.36,3.36,0,0,1,2.53-.95,2.8,2.8,0,0,1,2.18.83,3.27,3.27,0,0,1,.76,2.3Zm5.39-2.19h-.41a1.73,1.73,0,0,0-1.11.34,1.61,1.61,0,0,0-.57.92V27.3h-2V20.42h1.29l.27,1a2.4,2.4,0,0,1,.85-.77,2.36,2.36,0,0,1,1.17-.28,3.48,3.48,0,0,1,.49,0Zm5.16,2.49h-4V23h4Zm3.65,2.6h-2V21.82l-.72-.6v-.8h2.69Zm0-8.08h-2.18V17.69h2.18Zm8.17,8.08h-2V23.14q0-1.26-1.05-1.26a1.43,1.43,0,0,0-.85.27,1.77,1.77,0,0,0-.59.77V27.3h-2V20.42h1.29l.27,1.06a3,3,0,0,1,2.46-1.21,2.24,2.24,0,0,1,1.8.72,3.09,3.09,0,0,1,.63,2.09Zm6-.41a3.72,3.72,0,0,1-2.24.57,6.56,6.56,0,0,1-1.32-.13,3.59,3.59,0,0,1-1.06-.33V25.44a7.55,7.55,0,0,0,1.21.36,6,6,0,0,0,1.13.11c.75,0,1.12-.19,1.12-.57a.44.44,0,0,0-.21-.37,2.87,2.87,0,0,0-.71-.28l-1-.27a3.07,3.07,0,0,1-1.32-.73,1.72,1.72,0,0,1-.44-1.22,1.91,1.91,0,0,1,.78-1.62,3.52,3.52,0,0,1,2.15-.58,6.8,6.8,0,0,1,1.18.1,4.89,4.89,0,0,1,1,.29v1.53a6.08,6.08,0,0,0-2.17-.4c-.7,0-1,.18-1,.53a.4.4,0,0,0,.2.33,2.67,2.67,0,0,0,.69.28l1,.28a3,3,0,0,1,1.39.72,1.91,1.91,0,0,1,.4,1.29A1.94,1.94,0,0,1,143.27,26.89Zm7.83-.38a2.6,2.6,0,0,1-2.14.95,2.45,2.45,0,0,1-1.75-.69v3.14h-2V20.42h1.29l.27,1A2.56,2.56,0,0,1,149,20.27a2.62,2.62,0,0,1,2.13.95,4.07,4.07,0,0,1,.78,2.64A4.12,4.12,0,0,1,151.1,26.51Zm4.19.79h-2V21.82l-.72-.6v-.8h2.69Zm0-8.08h-2.18V17.69h2.18Zm5.79,3h-.42a1.72,1.72,0,0,0-1.1.34,1.52,1.52,0,0,0-.57.92V27.3h-2V20.42h1.29l.27,1a2.33,2.33,0,0,1,2-1.05,3.63,3.63,0,0,1,.5,0Zm7.08,2.19h-4.42a1.72,1.72,0,0,0,.58,1.17,2.07,2.07,0,0,0,1.33.37,5.85,5.85,0,0,0,1-.1,7.12,7.12,0,0,0,1.14-.35V27a5.51,5.51,0,0,1-2.39.48,3.72,3.72,0,0,1-2.72-.93,3.62,3.62,0,0,1-.95-2.69,3.62,3.62,0,0,1,.92-2.62,3.36,3.36,0,0,1,2.53-.95,2.8,2.8,0,0,1,2.18.83,3.32,3.32,0,0,1,.75,2.3Zm7.74,2.9h-1.29l-.27-1a2.56,2.56,0,0,1-2.16,1.17,2.6,2.6,0,0,1-2.13-1,4,4,0,0,1-.78-2.63,4.1,4.1,0,0,1,.76-2.65,2.6,2.6,0,0,1,2.14-.95,2.45,2.45,0,0,1,1.75.69V17.54h2Z" class="cls-1"/>
</svg>
