<?xml version="1.0" encoding="utf-8"?>
<!-- Generator: Adobe Illustrator 23.0.1, SVG Export Plug-In . SVG Version: 6.00 Build 0)  -->
<svg  version="1.1" id="Layer_1" xmlns="http://www.w3.org/2000/svg" xmlns:xlink="http://www.w3.org/1999/xlink" x="0px" y="0px"
	 viewBox="0 0 118 25.5" style="enable-background:new 0 0 118 25.5;" xml:space="preserve">
<style type="text/css">
	.st0{fill:#FFFFFF;}
</style>
<path class="st0" d="M49.7,14.9h7.1l-3.7-6l-6.9,10.9H43l8.4-13.1c0.4-0.5,1-0.9,1.6-0.9c0.7,0,1.3,0.3,1.6,0.8L63,19.7h-3.1
	l-1.5-2.4h-7.2L49.7,14.9 M82.2,17.3V5.9h-2.7v12.5c0,0.3,0.1,0.7,0.4,0.9c0.3,0.3,0.6,0.4,1,0.4H93l1.6-2.4H82.2 M38.3,15.3
	c2.6,0,4.7-2.1,4.7-4.7s-2.1-4.7-4.7-4.7H26.6v13.8h2.7V8.4h8.8c1.2,0,2.2,1,2.2,2.2c0,1.2-1,2.2-2.2,2.2l-7.5,0l7.9,6.9h3.9
	l-5.3-4.5H38.3 M10.3,19.7h8c3.8,0,6.9-3.1,6.9-6.9c0-3.8-3.1-6.9-6.9-6.9h-8c-3.8,0-6.9,3.1-6.9,6.9C3.4,16.7,6.5,19.7,10.3,19.7
	 M18.2,17.3h-7.7c-2.5,0-4.5-2-4.5-4.5c0-2.5,2-4.5,4.5-4.5h7.7c2.5,0,4.5,2,4.5,4.5C22.6,15.3,20.6,17.3,18.2,17.3 M68.6,19.7h8.2
	l1.6-2.4h-9.6c-2.5,0-4.5-2-4.5-4.5c0-2.5,2-4.5,4.5-4.5h7.8l1.6-2.4h-9.5c-3.8,0-6.9,3.1-6.9,6.9C61.7,16.7,64.8,19.7,68.6,19.7
	 M101.1,17.3c-2,0-3.8-1.4-4.3-3.3h11.4l1.6-2.4H96.8c0.5-1.9,2.3-3.3,4.3-3.3h7.8l1.6-2.4h-9.5C97.1,5.9,94,9,94,12.8
	c0,3.8,3.1,6.9,6.9,6.9h8.2l1.6-2.4H101.1 M111.8,7.4c0-0.7,0.5-1.2,1.2-1.2c0.7,0,1.2,0.5,1.2,1.2c0,0.7-0.5,1.2-1.2,1.2
	C112.4,8.6,111.8,8.1,111.8,7.4 M113.1,9c0.9,0,1.5-0.7,1.5-1.5s-0.7-1.6-1.5-1.6c-0.9,0-1.6,0.7-1.6,1.6S112.2,9,113.1,9
	 M112.9,6.5c0.2,0,0.3,0,0.5,0c0.3,0.1,0.3,0.4,0.3,0.5c0,0,0,0.1,0,0.1c0,0.1-0.1,0.2-0.2,0.3c0,0,0,0-0.1,0l0.4,0.7h-0.4l-0.4-0.7
	h-0.2v0.7h-0.3V6.5H112.9 M113,7.3c0.1,0,0.2,0,0.3-0.1c0,0,0.1-0.1,0.1-0.1c0-0.1-0.1-0.2-0.1-0.2c-0.1,0-0.2,0-0.3,0h-0.1v0.5H113
	"/>
</svg>
